<svg width="265" height="301" viewBox="0 0 265 301" fill="none" xmlns="http://www.w3.org/2000/svg">
<path fill-rule="evenodd" clip-rule="evenodd" d="M76.5001 20.5051C87.3334 7.00506 117.6 -13.4949 152 12.5051C154.5 18.6718 160.4 39.0051 164 71.0051C138.4 76.2051 96.0001 79.5051 78.0001 80.5051C76.0001 62.9051 76.1668 33.1717 76.5001 20.5051ZM93 89.5051C98.3333 87.1718 116.7 82.6051 147.5 83.0051C153 83.1718 165.5 83.0051 171.5 81.0051C178.5 77.1718 192.2 71.5051 191 79.5051C189.8 87.5051 184.833 92.8385 182.5 94.5051C180.167 95.3385 174.7 96.5051 171.5 94.5051C167.667 93.8385 157.3 92.9051 146.5 94.5051C140.167 95.6718 121.7 98.4051 98.5 100.005C92.3333 101.005 79.2 103.605 76 106.005C72.6666 107.338 65 109.205 61 106.005C58.8333 104.672 54.3 100.505 53.5 94.5051C53.1666 92.1718 53.7 87.9051 58.5 89.5051C65.6666 91.0051 82.5999 93.1051 93 89.5051ZM99.5 129.505C99.5 129.505 114.5 129.505 111.5 114.505C108.667 109.672 96.6 103.405 71 117.005C61.1666 123.005 37.9 142.005 23.5 170.005C5.49997 205.005 21.5 240.005 28.5 247.505C38 258.838 69.5 284.805 119.5 298.005C124 299.338 134.5 301.5 143.5 298.5C158 295 196.5 282.005 228 255.005C242.833 242.338 264.4 204.505 232 154.505C220 137.005 193.5 106.005 162 109.505C158.667 109.838 151.9 112.005 151.5 118.005C151.667 122.505 155.5 131.005 169.5 129.005C172.5 128.505 179.5 128.305 183.5 131.505C185.5 132.838 189.8 136.305 191 139.505C191.167 140.338 190.8 142.005 188 142.005H179C178 142.005 176.2 142.505 177 144.505C178.5 146.338 181.8 151.705 183 158.505C183.167 161.005 183 166.805 181 170.005C180.167 171.672 179.3 175.305 182.5 176.505C185.667 178.005 191.8 182.305 191 187.505C187.667 201.505 175 230.705 151 235.505C148.667 236.005 142.8 236.805 138 236.005C136.5 235.672 132 235.205 126 236.005C123.833 236.172 118.3 236.405 113.5 236.005C105.667 234.672 85 224.505 76 196.005C74.3333 190.838 72.5 180.205 78.5 179.005C79.8333 178.505 82.7 177.005 83.5 175.005C84 173.338 84.4 169.005 82 165.005C80.8333 162.672 80 155.605 86 146.005C87 144.505 88.2 141.505 85 141.505H75.5C74.1667 141.505 72 140.605 74 137.005C75.3333 135.338 79.3 131.505 84.5 129.505C87.1666 128.505 99.5 129.505 99.5 129.505ZM141.5 167.481C151.099 163.534 159.001 154.739 159.001 149.505C159.001 145.496 158.19 142.398 156.5 140.005C154.433 137.079 150.64 134.694 147 133.505C142.272 131.96 137.061 131.98 131.794 132H131.794L131.793 132L131.783 132C131.19 132.003 130.595 132.005 130.001 132.005C126.665 132.005 121.89 132.46 118 133.505C114.843 134.354 112.441 135.638 110.5 137.005C105.488 140.534 105.495 145.436 105.5 149.154V149.158V149.161V149.165C105.5 149.279 105.501 149.393 105.501 149.505C105.501 155.09 114.17 164.729 124.5 168.206C128.49 169.967 129.83 171.806 130.001 172.505C130.001 182.105 121 185.838 116.5 186.505H97.5C95.1 185.705 91.8333 183.172 90.5 182.005C86.9 178.005 83.6666 181.005 82.5 183.005C82.1 189.405 84.3333 192.005 85.5 192.505C88.3 195.705 96.6666 193.838 100.5 192.505H115.5C127.1 196.505 141.333 194.172 147 192.505H164L170 193.505C174.4 194.305 176.5 193.838 177 193.505C180.2 192.305 181.667 188.338 182 186.505C182.4 180.905 178.167 180.172 176 180.505C174 181.305 171.167 183.838 170 185.005C167.6 186.605 161 186.672 158 186.505C147.2 186.505 144.734 186.271 143 185.5C134 181.5 133.667 175.505 134 172.505C134.599 170.708 137.292 169.163 139.517 168.217C140.184 167.996 140.846 167.75 141.5 167.481ZM227.5 99.5051C213.5 104.305 211.667 115.505 212.5 120.505C218.5 137.305 229.333 133.505 234 129.505C239.2 122.305 244.167 124.505 246 126.505C250.8 134.505 248 141.838 246 144.505C241.6 153.305 242.167 158.172 243 159.505C247.4 168.305 254.5 163.172 257.5 159.505C273.1 130.305 258 109.672 248.5 103.005C240.5 97.4051 231.167 98.3385 227.5 99.5051ZM36.7387 99.8901C50.7387 104.69 52.572 115.89 51.7387 120.89C45.7386 137.69 34.9053 133.89 30.2387 129.89C25.0388 122.69 20.0721 124.89 18.2387 126.89C13.4387 134.89 16.2387 142.223 18.2387 144.89C22.6387 153.69 22.072 158.557 21.2387 159.89C16.8387 168.69 9.73872 163.557 6.73872 159.89C-8.86128 130.69 6.23872 110.057 15.7387 103.39C23.7387 97.7901 33.072 98.7235 36.7387 99.8901Z" fill="#FFFFFF"/>
</svg>
